<?xml version="1.0" encoding="iso-8859-1"?>
<!-- Generator: Adobe Illustrator 19.0.0, SVG Export Plug-In . SVG Version: 6.00 Build 0)  -->
<svg version="1.1" id="Layer_1" xmlns="http://www.w3.org/2000/svg" xmlns:xlink="http://www.w3.org/1999/xlink" x="0px" y="0px"
	 viewBox="0 0 511.999 511.999" style="enable-background:new 0 0 511.999 511.999;" xml:space="preserve">
<g>
	<rect x="335.997" y="128.003" style="fill:#FAC15C;" width="48.001" height="24"/>
	<circle style="fill:#FAC15C;" cx="48" cy="39.995" r="16"/>
	<circle style="fill:#FAC15C;" cx="167.999" cy="39.995" r="16"/>
	<rect x="143.997" y="223.998" style="fill:#FAC15C;" width="48.001" height="23.999"/>
</g>
<path style="fill:#77AAD4;" d="M252.203,80c-13.254,0-23.999,10.746-23.999,24c0,13.255,10.745,24,23.999,24V80z"/>
<rect x="287.995" y="80.001" style="fill:#1D71B8;" width="87.998" height="48"/>
<rect x="255.996" y="80.001" style="fill:#FFFFFF;" width="31.999" height="48"/>
<polygon style="fill:#77AAD4;" points="447.999,287.999 64,287.999 104,247.999 408,247.999 "/>
<g>
	<circle style="fill:#FFFFFF;" cx="80.001" cy="415.998" r="72.004"/>
	<circle style="fill:#FFFFFF;" cx="255.996" cy="415.998" r="72.004"/>
	<circle style="fill:#FFFFFF;" cx="432.002" cy="415.998" r="72.004"/>
</g>
<path style="fill:#F9B233;" d="M432,343.999c11.497,0,22.358,2.709,31.999,7.502v-63.503H48v63.503
	c9.642-4.793,20.502-7.502,31.999-7.502c39.765,0,72.001,32.236,72.001,72h32c0-39.764,32.236-72,72-72s72,32.236,72,72h32
	C359.999,376.235,392.235,343.999,432,343.999z"/>
<g>
	<circle style="fill:#1D71B8;" cx="80.001" cy="415.998" r="47.999"/>
	<circle style="fill:#1D71B8;" cx="255.996" cy="415.998" r="48.001"/>
	<circle style="fill:#1D71B8;" cx="432.002" cy="415.998" r="47.999"/>
</g>
<g>
	<path style="fill:#1D1D1B;" d="M80,472c-30.878,0-56-25.121-56-56.001s25.121-56.001,56-56.001
		c30.879,0,56.001,25.122,56.001,56.001S110.879,472,80,472z M80,376c-22.055,0-39.998,17.943-39.998,39.999
		c0,22.056,17.943,39.999,39.998,39.999c22.056,0,39.999-17.943,39.999-39.999C119.999,393.943,102.056,376,80,376z"/>
	<path style="fill:#1D1D1B;" d="M255.999,472c-30.879,0-56.001-25.121-56.001-56.001s25.122-56.001,56.001-56.001
		S312,385.12,312,415.999S286.879,472,255.999,472z M255.999,376C233.943,376,216,393.943,216,415.999
		c0,22.056,17.943,39.999,39.999,39.999s39.999-17.943,39.999-39.999C295.999,393.943,278.057,376,255.999,376z"/>
	<path style="fill:#1D1D1B;" d="M432,472C401.121,472,376,446.878,376,415.999s25.122-56.001,56.001-56.001
		c30.878,0,56,25.122,56,56.001S462.877,472,432,472z M432,376c-22.056,0-39.999,17.943-39.999,39.999
		c0,22.056,17.943,39.999,39.999,39.999c22.055,0,39.998-17.943,39.998-39.999C471.999,393.943,454.055,376,432,376z"/>
</g>
<g>
	<polygon style="fill:#FFFFFF;" points="88,391.999 72,391.999 72,407.999 56.001,407.999 56.001,423.999 72,423.999 72,439.999 
		88,439.999 88,423.999 104,423.999 104,407.999 88,407.999 	"/>
	<polygon style="fill:#FFFFFF;" points="264.001,391.999 247.999,391.999 247.999,407.999 231.999,407.999 231.999,423.999 
		247.999,423.999 247.999,439.999 264.001,439.999 264.001,423.999 280,423.999 280,407.999 264.001,407.999 	"/>
	<polygon style="fill:#FFFFFF;" points="455.999,407.999 440,407.999 440,391.999 423.999,391.999 423.999,407.999 408,407.999 
		408,423.999 423.999,423.999 423.999,439.999 440,439.999 440,423.999 455.999,423.999 	"/>
</g>
<g>
	<rect x="96.005" y="303.999" style="fill:#1D1D1B;" width="31.999" height="16.001"/>
	<rect x="143.997" y="303.999" style="fill:#1D1D1B;" width="32" height="16.001"/>
	<rect x="192" y="303.999" style="fill:#1D1D1B;" width="32" height="16.001"/>
	<rect x="240.002" y="303.999" style="fill:#1D1D1B;" width="31.999" height="16.001"/>
	<rect x="287.995" y="303.999" style="fill:#1D1D1B;" width="32" height="16.001"/>
	<rect x="335.997" y="303.999" style="fill:#1D1D1B;" width="32" height="16.001"/>
	<rect x="384" y="303.999" style="fill:#1D1D1B;" width="31.999" height="16.001"/>
	<path style="fill:#1D1D1B;" d="M407.999,24v72H384V72h-136C230.355,72,216,86.355,216,104s14.355,32,31.999,32h136v-24h23.999v16
		H424V24H407.999z M247.999,119.999c-8.823,0-15.999-7.177-15.999-16S239.177,88,247.999,88V119.999z M264.001,88H280v31.999
		h-15.999V88L264.001,88z M367.999,119.999h-72V88h72V119.999z"/>
	<path style="fill:#1D1D1B;" d="M56.001,121.012V112H39.999v9.012c-13.786,3.562-24,16.104-24,30.987v31.999H32v-31.999
		c0-8.823,7.177-16,16-16s16,7.177,16,16v31.999h16v-31.999C80.001,137.116,69.787,124.575,56.001,121.012z"/>
	<path style="fill:#1D1D1B;" d="M192.001,39.999c0-13.233-10.767-24-24.001-24c-10.429,0-19.321,6.689-22.624,16H70.624
		c-3.304-9.31-12.195-16-22.624-16c-13.233,0-24,10.767-24,24c0,10.43,6.689,19.322,16,22.625v41.375h16.001V62.625
		c6.807-2.415,12.209-7.816,14.624-14.625h74.752c2.415,6.808,7.816,12.21,14.624,14.625v153.374h-16V232h48.001v-16.001h-16V62.625
		C185.312,59.321,192.001,50.429,192.001,39.999z M168,32c4.411,0,8,3.589,8,7.999c0,4.411-3.589,8-8,8c-4.41,0-7.999-3.589-7.999-8
		C160.001,35.589,163.589,32,168,32z M48,32C52.411,32,56,35.589,56,39.999c0,4.411-3.589,8-7.999,8s-7.999-3.589-7.999-8
		C40,35.589,43.589,32,48,32z"/>
	<path style="fill:#1D1D1B;" d="M472,346.762v-66.763h-20.688l-39.998-39.999H368v-79.999h16v-16.001h-48v16.001h16v79.999H100.686
		l-39.998,39.999H39.999v66.763C16.113,360.616,0,386.453,0,415.999C0,460.111,35.887,496,80,496
		c41.412,0,75.573-31.632,79.599-72.001h16.802C180.428,464.368,214.588,496,255.999,496s75.572-31.632,79.598-72.001H352.4
		C356.427,464.368,390.588,496,431.999,496c44.112,0,80-35.888,80-80.001C512,386.453,495.887,360.616,472,346.762z M107.313,256
		H216v16h16.001v-16h15.998v16h16.001v-16H280v16h16.001v-16h108.687l24,23.999H83.313L107.313,256z M80,479.999
		c-35.289,0-63.999-28.71-63.999-64S44.71,352,80,352s64,28.709,64,63.999S115.289,479.999,80,479.999z M255.999,479.999
		c-35.289,0-63.999-28.71-63.999-64S220.71,352,255.999,352s63.999,28.709,63.999,63.999S291.289,479.999,255.999,479.999z
		 M335.598,407.999c-4.027-40.369-38.187-72-79.598-72s-75.572,31.63-79.598,72h-16.802c-4.027-40.369-38.188-72-79.599-72
		c-8.358,0-16.419,1.294-23.999,3.682V320H80v-16.001H56.001V296h399.999v7.999H432V320h23.999v19.681
		c-7.58-2.388-15.641-3.682-23.999-3.682c-41.412,0-75.573,31.63-79.599,72H335.598z M432,479.999c-35.289,0-64-28.71-64-64
		S396.711,352,432,352s63.999,28.709,63.999,63.999S467.29,479.999,432,479.999z"/>
</g>
<g>
</g>
<g>
</g>
<g>
</g>
<g>
</g>
<g>
</g>
<g>
</g>
<g>
</g>
<g>
</g>
<g>
</g>
<g>
</g>
<g>
</g>
<g>
</g>
<g>
</g>
<g>
</g>
<g>
</g>
</svg>
