<?xml version="1.0" encoding="utf-8"?>
<!-- Svg Vector Icons : http://www.onlinewebfonts.com/icon -->
<!DOCTYPE svg PUBLIC "-//W3C//DTD SVG 1.1//EN" "http://www.w3.org/Graphics/SVG/1.1/DTD/svg11.dtd">
<svg version="1.1" xmlns="http://www.w3.org/2000/svg" xmlns:xlink="http://www.w3.org/1999/xlink" x="0px" y="0px"
    viewBox="0 0 1000 1000" enable-background="new 0 0 1000 1000" xml:space="preserve">
    <metadata> Svg Vector Icons : http://www.onlinewebfonts.com/icon </metadata>
    <g>
        <path fill="rgb(0, 95, 43)" d="M427.9,10c0,0,22.2,7.8,58.5,23.3c18.7,6.5,37.5,20.5,59.8,37.2c24.6,16.7,44.2,36.9,64.3,60.3c23.3,22.8,36.9,50.6,55.5,80c5.3,15.6,10.9,31.6,16.5,48c4.1,16.9,4.1,39.1,5,59.4c-2.8,75.7-33.5,145.4-70.4,209.5c-19.3,31.8-38.8,62.1-59.3,90.3c-8.5,13.5-17.2,26.7-25.5,39.9c-10.3,15.2-11.4,23.8-19,35.6c-10.9,22.1-22.5,48.5-26.9,71.5c-7.6,23.9-8.8,46.7-11.5,69c2.4,21.1,0.7,42.8,5.3,61.2c6.1,17.8,6.2,36.3,13.1,49.5c11.2,27.4,17.4,45.4,17.4,45.4s-20.2-8.8-55.3-28.5c-18.2-9.6-34.1-24.7-54.2-42.2c-20-17.5-36.2-40.5-52.6-66.4c-13-26.5-27.9-56.4-31.5-89.2c-6.6-33.1-5-66.5,2.6-104.2c4.2-17.6,9.6-40.4,16.1-54.8c7.3-17,10.4-26.6,22.8-49.8c17-29.4,34.2-59.3,51.4-89.2c17.5-28.6,32.6-56.7,46.8-83.6c13.5-26.6,24.5-53.5,32.8-76.5c2.1-10.5,6.6-18.5,9.4-31.2l0.5-22.2l0.1-11l0.2-5.3l0.2-2.7l0.1-1.4l0.1-0.4c-1.2-4.9,1.5,6.4,1.2,5.2L501,236c-5.4-24.4-2.6-50.3-10.2-72c-6.3-22.1-9.3-44.2-16.9-60.8c-7.6-17.2-9.6-35.4-20.8-48.7C436.1,26.9,427.9,10,427.9,10z" />
    </g>
</svg>