<?xml version="1.0" encoding="iso-8859-1"?>
<!-- Generator: Adobe Illustrator 16.0.0, SVG Export Plug-In . SVG Version: 6.00 Build 0)  -->
<!DOCTYPE svg PUBLIC "-//W3C//DTD SVG 1.1//EN" "http://www.w3.org/Graphics/SVG/1.1/DTD/svg11.dtd">
<svg version="1.1" id="Capa_1" xmlns="http://www.w3.org/2000/svg" xmlns:xlink="http://www.w3.org/1999/xlink" x="0px" y="0px"
	 width="39.28px" height="39.279px" viewBox="0 0 39.28 39.279" style="enable-background:new 0 0 39.28 39.279;"
	 xml:space="preserve">
<g>
	<path fill ="#4dd0ef" d="M36.718,26.74c0-0.185-0.102-0.356-0.261-0.45l-2.126-1.229c-0.16-0.092-0.362-0.092-0.521,0l-1.865,1.079l-1.463-0.846
		l1.469-0.849c0.25-0.145,0.336-0.463,0.191-0.712c-0.143-0.251-0.461-0.335-0.713-0.191l-1.989,1.15l-1.846-1.064l3.984-2.3
		c0.248-0.145,0.333-0.463,0.19-0.713c-0.145-0.249-0.461-0.333-0.712-0.19l-4.504,2.602l-0.544-0.312v-6.151l0.543-0.312
		l4.507,2.602c0.082,0.047,0.171,0.07,0.261,0.07c0.179,0,0.355-0.094,0.45-0.26c0.146-0.25,0.061-0.568-0.189-0.712l-3.987-2.301
		l1.847-1.065l1.989,1.149c0.084,0.047,0.174,0.07,0.261,0.07c0.182,0,0.356-0.093,0.452-0.261c0.146-0.249,0.06-0.567-0.191-0.712
		l-1.469-0.848l1.461-0.845l1.865,1.076c0.079,0.046,0.171,0.07,0.261,0.07c0.089,0,0.179-0.023,0.26-0.07l2.128-1.226
		c0.159-0.093,0.261-0.265,0.261-0.451l-0.002-1.304l0.002-1.152c0-0.186-0.1-0.359-0.261-0.452L34.33,8.403
		c-0.162-0.092-0.362-0.092-0.521,0L31.683,9.63c-0.161,0.092-0.261,0.265-0.261,0.452v2.157l-1.461,0.843v-1.699
		c0-0.288-0.233-0.521-0.521-0.521c-0.289,0-0.521,0.233-0.521,0.521v2.3l-1.846,1.065v-4.601c0-0.288-0.234-0.521-0.521-0.521
		c-0.289,0-0.521,0.233-0.521,0.521v5.202l-0.543,0.314l-5.328-3.079v-0.625l4.508-2.603c0.248-0.143,0.333-0.461,0.189-0.711
		c-0.143-0.25-0.464-0.335-0.711-0.19l-3.987,2.302V8.625l1.994-1.151c0.248-0.143,0.333-0.463,0.189-0.711
		c-0.146-0.25-0.466-0.334-0.711-0.191l-1.472,0.85V5.73V5.128v-0.6l-0.521,0.3l-0.514-0.294V4.53l-1.085-0.625V2.05l1.106-0.639
		c0-0.002,0.003-0.004,0.003-0.006l0.489-0.282l0.499,0.288C20.089,1.178,19.895,1,19.644,0.998c0.001,0,0.003,0,0.003,0
		c0.251,0,0.45,0.179,0.5,0.413l1.106,0.639v1.854L20.169,4.53v0.6v0.603l1.867-1.077c0.16-0.092,0.26-0.264,0.26-0.45V1.75
		c0-0.185-0.1-0.357-0.26-0.451l-2.127-1.229c-0.159-0.093-0.36-0.093-0.521,0L17.26,1.299C17.101,1.392,17,1.563,17,1.75v2.456
		c0,0.186,0.1,0.358,0.26,0.45l1.858,1.072v0.004v1.689L17.65,6.573c-0.247-0.141-0.566-0.058-0.711,0.191
		c-0.145,0.248-0.06,0.568,0.19,0.711l1.99,1.15v2.132l-3.983-2.3c-0.249-0.144-0.568-0.059-0.711,0.19
		c-0.145,0.25-0.06,0.568,0.19,0.711l4.504,2.6v0.627l-5.327,3.076l-0.542-0.313l-0.001-5.202c0-0.288-0.234-0.521-0.521-0.521
		c-0.288,0-0.521,0.233-0.521,0.521l0.001,4.601l-1.847-1.066v-2.3c0-0.288-0.233-0.521-0.521-0.521
		c-0.287,0-0.521,0.233-0.521,0.521v1.698l-1.463-0.845l0.002-1.007l-0.002-1.149c0-0.186-0.1-0.357-0.26-0.45L5.471,8.402
		c-0.159-0.092-0.358-0.092-0.519,0L2.825,9.63c-0.159,0.092-0.261,0.265-0.261,0.451v2.456c0,0.186,0.102,0.358,0.261,0.451
		l2.126,1.229c0.081,0.045,0.171,0.07,0.26,0.07s0.182-0.023,0.26-0.07l1.866-1.079l1.465,0.847l-1.471,0.85
		c-0.25,0.144-0.336,0.462-0.192,0.711c0.097,0.167,0.272,0.26,0.452,0.26c0.087,0,0.177-0.022,0.26-0.07l1.992-1.149l1.846,1.065
		l-3.987,2.301c-0.249,0.144-0.333,0.463-0.191,0.712c0.097,0.168,0.273,0.26,0.452,0.26c0.088,0,0.178-0.022,0.26-0.07l4.507-2.603
		l0.541,0.312v6.151l-0.542,0.312l-4.504-2.602c-0.247-0.143-0.568-0.059-0.711,0.19c-0.145,0.249-0.061,0.568,0.19,0.713l3.984,2.3
		l-1.845,1.064l-1.992-1.15c-0.248-0.144-0.567-0.059-0.712,0.191c-0.145,0.249-0.06,0.567,0.192,0.711l1.471,0.85l-1.465,0.846
		l-1.868-1.077c-0.16-0.093-0.36-0.092-0.521,0l-2.122,1.226c-0.162,0.094-0.263,0.266-0.263,0.45l-0.002,1.157l0.002,0.148
		l-0.002,1.149c0,0.187,0.1,0.36,0.26,0.452l2.128,1.229c0.081,0.046,0.171,0.069,0.26,0.069s0.181-0.022,0.26-0.069l2.126-1.229
		c0.16-0.092,0.261-0.264,0.261-0.451L7.855,27.89l0.002-0.848l1.465-0.847v1.7c0,0.287,0.234,0.521,0.521,0.521
		c0.288,0,0.521-0.233,0.521-0.521v-2.302l1.845-1.063v4.602c0,0.288,0.233,0.521,0.521,0.521c0.286,0,0.521-0.233,0.521-0.521
		v-5.203l0.542-0.313l5.327,3.075v0.628l-4.503,2.6c-0.25,0.144-0.335,0.462-0.191,0.712c0.096,0.167,0.271,0.26,0.452,0.26
		c0.088,0,0.177-0.021,0.26-0.069l3.982-2.3v2.132l-1.99,1.149c-0.249,0.144-0.334,0.463-0.19,0.712
		c0.145,0.249,0.461,0.333,0.711,0.191l1.469-0.848v1.689l-1.867,1.075c-0.16,0.094-0.26,0.266-0.26,0.452v2.454
		c0,0.187,0.1,0.358,0.259,0.452l2.128,1.229c0.08,0.046,0.171,0.069,0.26,0.069s0.18-0.022,0.26-0.069l2.127-1.229
		c0.16-0.093,0.259-0.265,0.259-0.452v-2.454c0-0.187-0.101-0.358-0.261-0.452l-1.864-1.074v-1.691l1.471,0.85
		c0.081,0.047,0.173,0.068,0.261,0.068c0.179,0,0.354-0.092,0.451-0.26c0.145-0.248,0.06-0.567-0.191-0.712l-1.992-1.152V28.52
		l3.986,2.302c0.249,0.145,0.57,0.062,0.712-0.19c0.145-0.249,0.06-0.568-0.19-0.711l-4.507-2.603v-0.626l5.327-3.076l0.541,0.313
		v5.204c0,0.287,0.234,0.521,0.521,0.521c0.288,0,0.521-0.234,0.521-0.521V24.53l1.848,1.064v2.302c0,0.287,0.231,0.521,0.521,0.521
		c0.286,0,0.521-0.233,0.521-0.521v-1.699l1.462,0.846v2.154c0,0.188,0.101,0.359,0.261,0.451l2.126,1.229
		c0.081,0.046,0.171,0.069,0.261,0.069c0.089,0,0.181-0.022,0.26-0.069l2.126-1.229c0.16-0.092,0.261-0.264,0.261-0.451l0.002-1.307
		L36.718,26.74L36.718,26.74z M32.464,11.634v-1.253l1.605-0.927l1.106,0.638l0.498,0.288v0.578l0.002,1.279l-1.606,0.926
		l-1.085-0.625l-0.521-0.301V11.634z M3.604,10.957V10.38l0.499-0.288l1.106-0.638l1.607,0.926l-0.002,1.253v0.601l-0.521,0.301
		l-1.084,0.626l-1.605-0.928V10.957L3.604,10.957z M6.814,28.897l-1.603,0.928l-1.115-0.645l-0.492-0.281l0.002-0.578v-0.279
		l-0.002-0.149v-0.848l1.605-0.928l1.084,0.625l0.521,0.302v0.602V28.897L6.814,28.897z M20.161,25.489L19.64,25.79l-0.521-0.301
		l-4.285-2.475l-0.521-0.302v-0.602v-4.948v-0.602l0.521-0.301l4.285-2.475l0.521-0.301l0.521,0.301l4.285,2.475l0.521,0.301v0.602
		v4.948v0.602l-0.521,0.302L20.161,25.489z M21.246,37.228l-1.106,0.639l-0.499,0.288l-0.499-0.288l-1.106-0.639v-1.854l1.085-0.627
		l0.521-0.3l0.521,0.3l1.084,0.627L21.246,37.228L21.246,37.228z M32.465,27.891v-0.246l-0.002-0.601l0.521-0.302l1.085-0.627
		l1.606,0.93l-0.002,1.276v0.578l-0.489,0.281l-1.115,0.645l-1.605-0.928L32.465,27.891z"/>
</g>
<g>
</g>
<g>
</g>
<g>
</g>
<g>
</g>
<g>
</g>
<g>
</g>
<g>
</g>
<g>
</g>
<g>
</g>
<g>
</g>
<g>
</g>
<g>
</g>
<g>
</g>
<g>
</g>
<g>
</g>
</svg>
