<?xml version="1.0" encoding="iso-8859-1"?>
<!-- Generator: Adobe Illustrator 19.0.0, SVG Export Plug-In . SVG Version: 6.00 Build 0)  -->
<svg version="1.1" id="Layer_1" xmlns="http://www.w3.org/2000/svg" xmlns:xlink="http://www.w3.org/1999/xlink" x="0px" y="0px"
	 viewBox="0 0 512 512" style="enable-background:new 0 0 512 512;" xml:space="preserve">
<g>
	<path style="fill:#C2AC9C;" d="M318.63,320.918c-7.864,0-15.971-0.597-24.099-1.775c-9.879-1.433-22.264-2.16-36.809-2.16
		c-15.487,0-30.073,0.816-39.581,1.502l-2.039,0.147l-0.306-2.021c-1.389-9.152-3.364-27.481-0.993-47.392
		c4.462-37.57,21.625-62.268,51.009-73.41c12.637-4.794,25.696-7.225,38.815-7.225c30.916,0,52.319,13.559,53.215,14.135
		c0.997,0.646,2.15,0.986,3.336,0.986h25.703l0.652,1.017c1.9,2.96,4.947,6.349,9.057,10.071
		c5.035,4.568,11.214,9.198,14.375,10.773c0.868,0.435,1.781,0.654,2.718,0.654c2.322,0,4.407-1.289,5.44-3.364
		c1.497-3.003,0.281-6.663-2.714-8.16c-1.453-0.734-5.843-3.831-10.33-7.744c-6.053-5.277-8.05-8.308-8.518-9.111l-0.301-0.516
		v-25.671l2.844,0.848c3.129,0.934,6.061,2.069,8.715,3.375c10.345,5.114,14.867,12.003,13.827,21.059
		c-0.185,1.611,0.271,3.199,1.281,4.47c1.011,1.272,2.456,2.075,4.072,2.258c0.237,0.027,0.471,0.041,0.703,0.041
		c1.399,0,2.762-0.491,3.839-1.383l1.004-0.832l1.214,0.478c12.851,5.041,44.495,20.247,60.749,52.427l0.853,1.689l-1.537,1.104
		c-4.806,3.452-12.538,7.569-22.079,7.569c-4.563,0-9.113-0.961-13.523-2.854c-0.77-0.332-1.579-0.499-2.405-0.499
		c-2.434,0-4.625,1.445-5.581,3.682c-0.673,1.559-0.66,3.284,0.035,4.863l1.643,3.733l-4.026-0.66
		c-5.952-0.976-12.831-2.875-18.403-5.08c-0.735-0.295-1.496-0.441-2.272-0.441c-1.94,0-3.774,0.938-4.905,2.508
		C399.49,302.838,362.318,320.916,318.63,320.918z M442.885,230.898c-5.086,0-9.223,4.137-9.223,9.223
		c0,5.087,4.137,9.224,9.223,9.224s9.223-4.137,9.223-9.224C452.108,235.035,447.971,230.898,442.885,230.898z"/>
	<path style="fill:#C2AC9C;" d="M493.533,255.392c-6.204,4.457-18.655,10.826-33.44,4.479c-4.213-1.814-9.09,0.133-10.892,4.346
		c-0.951,2.201-0.852,4.589,0.044,6.624c-6.137-1.006-12.806-2.919-17.948-4.954c-3.528-1.415-7.564-0.254-9.787,2.831
		c-27.779,38.295-73.947,55.878-126.662,48.236c-25.688-3.727-61.374-1.791-76.866-0.675c-1.438-9.476-3.295-27.391-0.984-46.798
		c4.357-36.682,21.044-60.776,49.597-71.603c49.552-18.799,88.433,5.661,90.048,6.701c1.349,0.874,2.919,1.338,4.534,1.338h24.494
		c1.803,2.809,4.722,6.248,9.433,10.516c5.242,4.755,11.501,9.433,14.873,11.114c1.194,0.597,2.455,0.886,3.705,0.886
		c3.041,0,5.971-1.681,7.42-4.589c2.046-4.103,0.387-9.079-3.705-11.125c-1.073-0.542-5.186-3.351-9.864-7.432
		c-5.175-4.512-7.398-7.42-8.062-8.558v-22.106c2.632,0.785,5.54,1.847,8.371,3.24c12.529,6.194,13.193,13.712,12.606,18.822
		c-0.52,4.544,2.742,8.659,7.298,9.178c2.322,0.265,4.534-0.453,6.204-1.836C445.982,208.747,477.52,223.688,493.533,255.392z
		 M454.32,240.119c0-6.302-5.131-11.434-11.434-11.434s-11.434,5.132-11.434,11.434c0,6.303,5.131,11.435,11.434,11.435
		S454.32,246.424,454.32,240.119z"/>
</g>
<g>
	<path style="fill:#3D484A;" d="M511.348,254.419c1.283,3.052,0.641,6.568-1.648,8.957c-0.708,0.741-13.082,13.403-31.649,15.515
		c-0.475,1.338-1.294,2.577-2.466,3.55c-11.733,9.831-33.341,4.656-44.443,1.006c-20.635,25.943-49.022,42.685-81.887,49.009
		l2.112,5.541c4.213-0.453,9.377-0.166,13.956,2.488c3.97,2.3,5.319,7.364,3.03,11.335c-1.537,2.653-4.324,4.135-7.188,4.135
		c-1.415,0-2.842-0.353-4.147-1.117c-1.404-0.806-5.352-0.354-7.951,0.597c-4.268,1.548-9.035-0.586-10.649-4.821l-6.049-15.869
		c-4.456,0.365-8.979,0.553-13.569,0.553c-8.581,0-17.373-0.63-26.33-1.935c-18.246-2.643-42.707-2.178-59.881-1.338l-1.559,4.678
		c9.377-1.183,21.177-1.206,29.459,3.893c3.904,2.4,5.12,7.509,2.72,11.412c-1.57,2.543-4.291,3.947-7.077,3.947
		c-1.482,0-2.975-0.397-4.335-1.226c-6.193-3.815-21.752-1.78-30.808,0.885c-2.975,0.874-6.171,0.033-8.316-2.19
		c-2.145-2.223-2.886-5.452-1.902-8.382l3.948-11.866c-1.747,0.144-2.742,0.232-2.809,0.243c-3.649,0.332-7-1.735-8.393-4.987
		c-13.37,4.501-83.745,26.264-195.223,26.264c-4.578,0-8.294-3.716-8.294-8.294c0-4.578,3.716-8.294,8.294-8.294
		c118.811,0,191.077-25.777,191.795-26.042c0.188-0.067,0.376-0.122,0.564-0.177c-1.272-11.058-2.19-27.082-0.133-44.366
		c5.076-42.696,25.888-72.144,60.19-85.149c51.211-19.429,92.768,1.227,102.765,6.956h19.407v-24.992
		c0-2.368,1.006-4.623,2.776-6.194s4.125-2.311,6.469-2.046c14.553,1.67,39.556,10.306,44.255,31.118
		C447.596,191.121,492.272,209.168,511.348,254.419z M460.092,259.871c14.785,6.347,27.237-0.022,33.44-4.479
		c-16.012-31.704-47.551-46.645-59.582-51.366c-1.67,1.382-3.881,2.101-6.204,1.836c-4.556-0.52-7.818-4.635-7.298-9.178
		c0.586-5.109-0.077-12.629-12.606-18.822c-2.831-1.393-5.739-2.455-8.371-3.24v22.106c0.663,1.138,2.886,4.046,8.062,8.558
		c4.678,4.082,8.791,6.889,9.864,7.432c4.092,2.046,5.75,7.022,3.705,11.125c-1.449,2.908-4.379,4.589-7.42,4.589
		c-1.25,0-2.51-0.289-3.705-0.886c-3.373-1.681-9.632-6.359-14.873-11.114c-4.711-4.267-7.63-7.708-9.433-10.516h-24.494
		c-1.615,0-3.185-0.464-4.534-1.338c-1.615-1.039-40.496-25.5-90.048-6.701c-28.553,10.826-45.24,34.921-49.597,71.603
		c-2.311,19.407-0.453,37.322,0.984,46.798c15.493-1.117,51.178-3.052,76.866,0.675c52.715,7.641,98.883-9.941,126.662-48.236
		c2.223-3.085,6.259-4.246,9.787-2.831c5.142,2.035,11.81,3.947,17.948,4.954c-0.896-2.035-0.995-4.423-0.044-6.624
		C451.002,260.003,455.879,258.057,460.092,259.871z"/>
	<path style="fill:#3D484A;" d="M442.885,228.686c6.303,0,11.434,5.132,11.434,11.434c0,6.303-5.131,11.435-11.434,11.435
		s-11.434-5.132-11.434-11.435S436.582,228.686,442.885,228.686z"/>
</g>
<g>
</g>
<g>
</g>
<g>
</g>
<g>
</g>
<g>
</g>
<g>
</g>
<g>
</g>
<g>
</g>
<g>
</g>
<g>
</g>
<g>
</g>
<g>
</g>
<g>
</g>
<g>
</g>
<g>
</g>
</svg>
