<?xml version="1.0" encoding="iso-8859-1"?>
<!-- Generator: Adobe Illustrator 19.0.0, SVG Export Plug-In . SVG Version: 6.00 Build 0)  -->
<svg version="1.1" id="Layer_1" xmlns="http://www.w3.org/2000/svg" xmlns:xlink="http://www.w3.org/1999/xlink" x="0px" y="0px"
	 viewBox="0 0 512.355 512.355" style="enable-background:new 0 0 512.355 512.355;" xml:space="preserve">
	<g transform="translate(1 1)">
		<path d="M510.773,231.127c-0.128-0.817-0.326-1.563-0.641-2.193l-12.378-23.43l-11.052-21.695
			c-0.346-0.692-0.836-1.381-1.458-2.018c-2.13-3.47-6.762-4.678-10.691-2.321l-239.56,123.227h-71.111
			c-5.207,0-8.678,3.471-8.678,8.678v26.902c0,10.414-17.356,10.414-17.356,0v-27.77c0-5.207-3.471-8.678-8.678-8.678H94.458
			v-25.166c0-13.885-11.281-26.034-26.034-26.034H33.712c-5.207,0-8.678,3.471-8.678,8.678v42.522h-0.868
			C9.414,304.432-1,315.714-1,329.598v86.78c0,7.81,3.471,14.753,8.678,19.092c4.339,4.339,9.546,6.075,14.753,6.075
			c1.736,0,2.603,0,3.471,0h345.383c6.942,0.868,13.017-0.868,18.224-5.207s8.678-11.281,8.678-19.092v-86.78
			c0-11.075-7.181-21.04-17.133-25.503l125.608-63.88C510.566,239.521,512.351,235.149,510.773,231.127z M474.553,198.561
			l15.62,31.241l-77.234,39.919l-15.608-31.217L474.553,198.561z M381.871,246.5l15.845,31.103l-48.993,25.094h-75.498
			L381.871,246.5z M42.39,267.985h26.034c4.339,0,8.678,3.471,8.678,8.678v25.166H42.39V267.985z M25.902,320.053h7.81H85.78
			h34.712v18.224c0,13.885,11.281,24.298,26.034,24.298c14.753,0,26.034-10.414,26.034-24.298v-19.092h65.085h112.814h20.827
			c5.207,1.736,9.546,5.207,9.546,10.414v59.878H16.356v-59.01C16.356,325.259,20.695,320.92,25.902,320.053z M378.227,422.453
			c-1.736,0.868-2.603,1.736-5.207,1.736h-0.868H25.034h-0.868c-2.603,0-4.339-0.868-5.207-0.868
			c-1.736-1.736-2.603-3.471-2.603-6.075v-10.414h364.475v9.546C380.831,418.981,379.963,420.717,378.227,422.453z"/>
	</g>
</svg>
