<?xml version="1.0" encoding="iso-8859-1"?>
<!-- Generator: Adobe Illustrator 16.0.0, SVG Export Plug-In . SVG Version: 6.00 Build 0)  -->
<!DOCTYPE svg PUBLIC "-//W3C//DTD SVG 1.1//EN" "http://www.w3.org/Graphics/SVG/1.1/DTD/svg11.dtd">
<svg version="1.1" id="Capa_1" xmlns="http://www.w3.org/2000/svg" xmlns:xlink="http://www.w3.org/1999/xlink" x="0px" y="0px"
	 width="749.999px" height="749.999px" viewBox="0 0 749.999 749.999" style="enable-background:new 0 0 749.999 749.999;"
	 xml:space="preserve">
	<g>
		<path fill="#eac615" d="M749.962,302.307c-1.893-95.178-83.005-162.37-163.518-136.932c-68.622,21.681-140.489,42.182-213.736,43.412
		c-72.966,1.225-140.466-21.71-209.153-43.412C83.042,139.938,1.93,207.129,0.037,302.307C0.012,303.561,0,304.817,0,306.077V375
		v68.922c0,1.26,0.012,2.517,0.037,3.77c1.893,95.179,83.005,162.37,163.518,136.933c68.687-21.702,136.187-44.636,209.153-43.412
		c73.247,1.229,145.114,21.729,213.736,43.412c80.513,25.438,161.625-41.754,163.518-136.933c0.025-1.253,0.037-2.51,0.037-3.77
		V375v-68.922C749.999,304.817,749.987,303.561,749.962,302.307z M165.878,332.271c25.266,0,45.748,11.684,45.748,26.097
		c0,14.414-20.482,26.097-45.748,26.097s-45.748-11.684-45.748-26.097C120.13,343.955,140.612,332.271,165.878,332.271z
			M104.881,201.625c25.266,0,45.748,20.482,45.748,45.748c0,25.266-20.482,45.748-45.748,45.748
		c-25.266,0-45.748-20.482-45.748-45.748C59.134,222.106,79.615,201.625,104.881,201.625z M54.508,420.492
		c0-13.91,11.276-25.188,25.187-25.188c13.91,0,25.187,11.276,25.187,25.188s-11.276,25.187-25.187,25.187
		C65.784,445.677,54.508,434.402,54.508,420.492z M159.138,537.351c-38.472,8.258-72.239,2.938-75.419-11.881
		c-3.181-14.82,25.428-33.527,63.9-41.786c38.472-8.258,72.239-2.938,75.419,11.881
		C226.219,510.385,197.61,529.093,159.138,537.351z M276.516,448.677c-13.91,0-25.187-11.275-25.187-25.187
		s11.276-25.188,25.187-25.188c13.911,0,25.187,11.276,25.187,25.188S290.426,448.677,276.516,448.677z M310.172,339.231
		c-32.039,0-58.011-19.302-58.011-43.112c0-23.81,25.972-43.112,58.011-43.112s58.011,19.302,58.011,43.112
		C368.183,319.929,342.21,339.231,310.172,339.231z M626.855,218.124c17.81,0,32.249,14.438,32.249,32.248
		c0,17.81-14.438,32.248-32.249,32.248c-17.812,0-32.248-14.438-32.248-32.248C594.606,232.562,609.044,218.124,626.855,218.124z
			M443.975,469.239c-25.266,0-45.747-20.482-45.747-45.748c0-25.267,20.481-45.748,45.747-45.748
		c25.267,0,45.748,20.481,45.748,45.748C489.723,448.756,469.24,469.239,443.975,469.239z M469.161,307.807
		c-13.91,0-25.188-11.276-25.188-25.187c0-13.911,11.276-25.187,25.188-25.187c13.91,0,25.187,11.276,25.187,25.187
		C494.348,296.531,483.072,307.807,469.161,307.807z M544.86,367.597c-13.91,0-25.188-11.276-25.188-25.187
		c0-13.91,11.276-25.187,25.188-25.187c13.91,0,25.187,11.276,25.187,25.187C570.046,356.321,558.771,367.597,544.86,367.597z
			M630.855,530.108c-30.271,0-54.81-24.538-54.81-54.809c0-30.27,24.539-54.809,54.81-54.809c30.27,0,54.809,24.539,54.809,54.809
		C685.663,505.57,661.125,530.108,630.855,530.108z M661.103,373.91c-13.909,0-25.187-11.276-25.187-25.188
		c0-13.91,11.276-25.187,25.187-25.187s25.188,11.276,25.188,25.187C686.29,362.632,675.013,373.91,661.103,373.91z"/>
	</g>
</svg>
